# Blender 4.0.2
# www.blender.org
o key
v -0.160748 0.504578 -0.863366
v 0.160748 0.504578 -0.863366
v -0.160748 -0.495408 -0.868660
v 0.160748 -0.495408 -0.868660
v -0.160748 -0.999986 -0.005294
v 0.160748 -0.999986 -0.005294
v -0.160748 -0.504578 0.863366
v 0.160748 -0.504578 0.863366
v -0.160748 0.495408 0.868660
v 0.160748 0.495408 0.868660
v -0.160748 0.999986 0.005294
v 0.160748 0.999986 0.005294
v 0.092625 -0.024635 -3.983665
v 0.092625 -0.679906 -3.983665
v 0.000000 -0.180828 -0.840908
v 0.000000 -0.180828 -4.076246
v 0.156602 -0.090414 -0.840908
v 0.156602 -0.090414 -4.076246
v 0.156602 0.090414 -0.840908
v 0.156602 0.090414 -4.076246
v 0.000000 0.180828 -0.840908
v 0.000000 0.180828 -4.076246
v -0.156602 0.090414 -0.840908
v -0.156602 0.090414 -4.076246
v -0.156602 -0.090414 -0.840908
v -0.156602 -0.090414 -4.076246
v 0.092625 -0.024635 -3.714328
v 0.092625 -0.679906 -3.714328
v -0.108940 -0.024635 -3.983665
v -0.108940 -0.679906 -3.983665
v -0.108940 -0.024635 -3.714328
v -0.108940 -0.679906 -3.714328
v 0.160748 -0.000000 -0.690416
v 0.160748 -0.597917 -0.345208
v 0.160748 0.597917 0.345208
v 0.160748 0.597917 -0.080374
v 0.160748 0.597917 -0.345208
v 0.160748 -0.000000 0.690416
v 0.160748 -0.597917 0.345208
v 0.160748 0.368565 0.477625
v -0.160748 0.597917 -0.345208
v -0.160748 0.000000 -0.690416
v -0.160748 -0.597917 -0.080374
v -0.160748 -0.597917 0.345208
v -0.160748 -0.597917 -0.345208
v -0.160748 0.597917 0.345208
v -0.160748 0.000000 0.690416
v -0.160748 -0.229353 -0.557999
v 0.074620 -0.001727 -3.402827
v 0.074620 -0.539936 -3.402827
v 0.074620 -0.001727 -3.181607
v 0.074620 -0.539936 -3.181607
v -0.090935 -0.001727 -3.402827
v -0.090936 -0.539936 -3.402827
v -0.090935 -0.001727 -3.181607
v -0.090936 -0.539936 -3.181607
vn -0.0000 0.0053 -1.0000
vn -0.0000 -0.8634 -0.5046
vn -0.0000 -0.8687 0.4954
vn -0.0000 -0.0053 1.0000
vn 1.0000 -0.0000 -0.0000
vn -0.0000 0.8634 0.5046
vn -0.0000 0.8687 -0.4954
vn -1.0000 -0.0000 -0.0000
vn 0.5000 -0.8660 -0.0000
vn 0.5000 0.8660 -0.0000
vn -0.5000 0.8660 -0.0000
vn -0.0000 -0.0000 -1.0000
vn -0.5000 -0.8660 -0.0000
vn -0.0000 -0.0000 1.0000
vn -0.0000 0.5000 0.8660
vn -0.0000 1.0000 -0.0000
vn -0.0000 0.5000 -0.8660
vn -0.0000 -0.5000 -0.8660
vn -0.0000 -1.0000 -0.0000
vn -0.0000 -0.5000 0.8660
vt 1.000000 0.500000
vt 1.000000 1.000000
vt 0.833333 1.000000
vt 0.833333 0.500000
vt 0.666667 1.000000
vt 0.666667 0.500000
vt 0.500000 1.000000
vt 0.500000 0.500000
vt 0.333333 1.000000
vt 0.333333 0.500000
vt 0.042154 0.370000
vt 0.042154 0.130000
vt 0.115791 0.195665
vt 0.084303 0.250877
vt 0.135840 0.339061
vt 0.250000 0.010000
vt 0.457846 0.130000
vt 0.457846 0.370000
vt 0.250000 0.490000
vt 0.167911 0.393937
vt 0.333608 0.393060
vt 0.415697 0.249123
vt 0.332089 0.106063
vt 0.166392 0.106940
vt 0.166667 1.000000
vt 0.166667 0.500000
vt -0.000000 1.000000
vt -0.000000 0.500000
vt 0.957846 0.370000
vt 0.957846 0.130000
vt 0.883626 0.194247
vt 0.915697 0.249123
vt 0.865097 0.337847
vt 0.750000 0.010000
vt 0.542154 0.130000
vt 0.542154 0.370000
vt 0.750000 0.490000
vt 0.833608 0.393060
vt 0.667911 0.393937
vt 0.584303 0.250877
vt 0.666392 0.106940
vt 0.832089 0.106063
vt 0.375000 0.000000
vt 0.625000 0.000000
vt 0.625000 0.250000
vt 0.375000 0.250000
vt 0.625000 0.500000
vt 0.375000 0.500000
vt 0.833333 0.691793
vt 0.833333 0.808207
vt 1.000000 0.808207
vt 1.000000 0.691793
vt 0.936069 0.691793
vt 0.666667 0.808207
vt 0.769402 0.691793
vt 0.666667 0.691793
vt 0.500000 0.808207
vt 0.500000 0.691793
vt 0.333333 0.808207
vt 0.397264 0.808207
vt 0.333333 0.691793
vt 0.166667 0.691793
vt 0.166667 0.808207
vt 0.230598 0.808207
vt -0.000000 0.691793
vt -0.000000 0.808207
vt 0.625000 0.750000
vt 0.375000 0.750000
vt 0.625000 1.000000
vt 0.375000 1.000000
vt 0.125000 0.500000
vt 0.125000 0.750000
vt 0.875000 0.500000
vt 0.875000 0.750000
s 0
f 1/1/1 2/2/1 4/3/1 3/4/1
f 3/4/2 4/3/2 6/5/2 5/6/2
f 5/6/3 6/5/3 8/7/3 7/8/3
f 7/8/4 8/7/4 10/9/4 9/10/4
f 12/11/5 10/12/5 40/13/5 35/14/5 36/15/5
f 40/13/5 10/12/5 8/16/5 6/17/5 4/18/5 2/19/5 12/11/5 36/15/5 37/20/5 33/21/5 34/22/5 39/23/5 38/24/5
f 9/10/6 10/9/6 12/25/6 11/26/6
f 11/26/7 12/25/7 2/27/7 1/28/7
f 3/29/8 5/30/8 43/31/8 45/32/8 48/33/8
f 43/31/8 5/30/8 7/34/8 9/35/8 11/36/8 1/37/8 3/29/8 48/33/8 42/38/8 41/39/8 46/40/8 47/41/8 44/42/8
f 15/1/9 16/2/9 18/3/9 17/4/9
f 17/4/5 18/3/5 20/5/5 19/6/5
f 19/6/10 20/5/10 22/7/10 21/8/10
f 32/43/8 31/44/8 29/45/8 30/46/8
f 21/8/11 22/7/11 24/9/11 23/10/11
f 24/12/12 22/16/12 20/17/12 18/18/12 16/19/12 26/11/12
f 30/46/12 29/45/12 13/47/12 14/48/12
f 23/10/8 24/9/8 26/25/8 25/26/8
f 25/26/13 26/25/13 16/27/13 15/28/13
f 25/36/14 15/37/14 17/29/14 19/30/14 21/34/14 23/35/14
f 45/49/15 34/50/15 33/51/15 42/52/15 48/53/15
f 39/54/16 34/50/16 45/49/16 43/55/16 44/56/16
f 38/57/17 39/54/17 44/56/17 47/58/17
f 35/59/18 40/60/18 38/57/18 47/58/18 46/61/18
f 41/62/19 37/63/19 36/64/19 35/59/19 46/61/19
f 42/65/20 33/66/20 37/63/20 41/62/20
f 14/48/5 13/47/5 27/67/5 28/68/5
f 28/68/14 27/67/14 31/69/14 32/70/14
f 30/71/19 14/48/19 28/68/19 32/72/19
f 13/47/16 29/73/16 31/74/16 27/67/16
f 56/43/8 55/44/8 53/45/8 54/46/8
f 54/46/12 53/45/12 49/47/12 50/48/12
f 50/48/5 49/47/5 51/67/5 52/68/5
f 52/68/14 51/67/14 55/69/14 56/70/14
f 54/71/19 50/48/19 52/68/19 56/72/19
f 49/47/16 53/73/16 55/74/16 51/67/16
