# Blender 4.0.2
# www.blender.org
o Toilet
v 0.357893 -0.124357 -0.423751
v -0.000000 -0.124357 -0.478575
v 0.000000 0.043565 -0.621445
v 0.000000 0.486855 -0.327257
v 0.464723 0.043565 -0.550256
v 0.822984 0.113417 -0.385656
v 0.992709 -0.142390 -0.074861
v 0.935016 -0.015952 0.220439
v 0.663123 0.043565 0.465250
v 0.239316 0.043565 0.603491
v 0.212792 0.473703 0.544400
v -0.239316 0.043565 0.603491
v -0.212792 0.557887 0.436646
v -0.464723 0.043565 -0.550256
v -0.410190 0.557887 -0.389819
v 0.633796 -0.124357 -0.271839
v 0.764505 -0.124357 -0.057640
v 0.720075 -0.124357 0.169776
v 0.510684 -0.124357 0.358311
v 0.184302 -0.124357 0.464772
v -0.184302 -0.124357 0.464772
v -0.510684 -0.124357 0.358311
v -0.357893 -0.124357 -0.423751
v -0.225161 -0.228399 -0.266576
v 0.000000 -0.228399 -0.301067
v -0.398741 -0.228399 -0.171003
v -0.480974 -0.228399 -0.036243
v -0.453021 -0.228399 0.106831
v -0.321287 -0.228399 0.225444
v -0.115950 -0.228399 0.292422
v 0.115950 -0.228399 0.292422
v 0.321287 -0.228399 0.225444
v 0.453021 -0.228399 0.106831
v 0.480974 -0.228399 -0.036243
v 0.398741 -0.228399 -0.171003
v 0.225161 -0.228399 -0.266576
v -0.225161 -0.351125 -0.266576
v 0.000000 -0.351125 -0.301067
v -0.398741 -0.351125 -0.171003
v -0.480974 -0.351125 -0.036243
v -0.453021 -0.351125 0.106831
v -0.321287 -0.351125 0.225444
v -0.115950 -0.351125 0.292422
v 0.115950 -0.351125 0.292422
v 0.321287 -0.351125 0.225444
v 0.453021 -0.351125 0.106831
v 0.480974 -0.351125 -0.036243
v 0.398741 -0.351125 -0.171003
v 0.225161 -0.351125 -0.266576
v -0.376541 -0.520826 -0.355292
v -0.076461 -0.520826 -0.401260
v -0.504651 -0.520826 0.300439
v -0.230991 -0.520826 0.389704
v 0.078070 -0.520826 0.389704
v 0.351730 -0.520826 0.300439
v 0.527296 -0.520826 0.142360
v 0.564550 -0.520826 -0.048320
v 0.454955 -0.520826 -0.227919
v 0.223620 -0.520826 -0.355292
v -0.419740 -0.713444 -0.406447
v -0.076461 -0.713444 -0.459032
v -0.253237 -0.713444 0.445797
v 0.100316 -0.713444 0.445797
v 0.413371 -0.713444 0.343683
v 0.614212 -0.713444 0.162846
v 0.656828 -0.713444 -0.055284
v 0.531457 -0.713444 -0.260737
v 0.266819 -0.713444 -0.406447
v -0.546223 -0.124357 0.326312
v -0.546223 -0.192088 0.128799
v -0.546223 0.043565 0.503382
v -0.546223 -0.085209 0.383242
v -0.546223 -0.163119 -0.234271
v -0.546223 -0.204456 -0.041167
v -0.379378 0.557887 0.382308
v -0.546223 0.043565 -0.505383
v -0.546223 -0.124357 -0.320057
v -0.379378 0.557887 -0.406784
v -0.546223 -0.420741 0.121406
v -0.546223 -0.520826 0.263009
v -0.546223 -0.520826 -0.261865
v -0.546223 -0.470798 -0.211140
v -0.546223 -0.397945 -0.039575
v -0.546223 -0.713444 0.350229
v -0.546223 -0.713444 -0.336806
v -0.546223 -0.650729 0.329603
v -0.565374 -0.033435 0.101902
v -0.565374 -0.042632 -0.024489
v -0.565374 0.141803 -0.369693
v -0.565374 0.016932 -0.231880
v -0.565374 0.524267 -0.369693
v -0.565374 0.016932 0.248778
v -0.565374 0.046044 0.291113
v -0.565374 -0.011893 -0.168087
v -0.565374 0.524267 0.380452
v -0.565374 0.141803 0.380452
v -0.687393 0.140552 0.074562
v -0.687393 0.134578 -0.007537
v -0.687393 0.254380 -0.231767
v -0.687393 0.173269 -0.142249
v -0.687393 0.502814 -0.231767
v -0.687393 0.173269 0.169967
v -0.687393 0.192178 0.197466
v -0.687393 0.154545 -0.100812
v -0.687393 0.502814 0.255497
v -0.687393 0.254380 0.255497
v -0.728519 0.293697 0.050502
v -0.728519 0.290560 0.007382
v -0.728519 0.353481 -0.110387
v -0.728519 0.310881 -0.063371
v -0.728519 0.483962 -0.110387
v -0.728519 0.310881 0.100610
v -0.728519 0.320812 0.115053
v -0.728519 0.301047 -0.041607
v -0.728519 0.483962 0.145531
v -0.728519 0.353481 0.145531
v -0.899648 0.293214 -0.008064
v -0.898522 0.298195 -0.050995
v -0.886463 0.381420 -0.154711
v -0.893474 0.331171 -0.116616
v -0.870064 0.508486 -0.130002
v -0.899254 0.300608 0.044388
v -0.898515 0.307588 0.060449
v -0.895477 0.317538 -0.097110
v -0.879085 0.460788 0.121271
v -0.895484 0.333721 0.096562
v -0.728519 0.541653 0.145531
v -0.728519 0.541653 -0.110387
v -0.871834 0.516969 0.132196
v -0.862813 0.564667 -0.119077
v -0.910401 0.366756 0.579128
v -0.868375 0.588972 -0.591494
v -0.769927 1.455202 0.790787
v -0.727901 1.677417 -0.379835
v -1.188338 0.403221 0.576072
v -1.146312 0.625436 -0.594550
v -1.047864 1.491667 0.787731
v -1.005839 1.713882 -0.382891
v 0.239316 0.557887 0.690402
v -0.239316 0.557887 0.603491
v -0.464723 0.557887 -0.550256
v -0.546223 0.557887 0.503382
v -0.546223 0.557887 -0.505383
v 0.000000 0.121373 -0.452655
v 0.410190 0.121373 -0.389819
v 0.703663 0.209789 -0.222542
v 0.816537 0.055693 -0.043261
v 0.763782 0.121373 0.133744
v 0.577763 0.237887 0.317598
v 0.212792 0.121373 0.436646
v -0.212792 0.121373 0.436646
v -0.410190 0.121373 -0.389819
v -0.379378 0.121373 0.382308
v -0.379378 0.121373 -0.406784
v -0.757988 1.471423 0.838690
v -0.712890 1.709887 -0.417527
v -1.056248 1.510554 0.835410
v -1.011149 1.749017 -0.420807
v -0.749919 1.533942 0.850847
v -0.704821 1.772405 -0.405370
v -1.048179 1.573072 0.847568
v -1.003081 1.811536 -0.408650
vn 0.6745 0.6185 -0.4032
vn 0.7522 0.6426 -0.1457
vn 0.7602 0.5946 -0.2618
vn 0.2901 0.8014 -0.5230
vn 0.4008 0.5552 -0.7288
vn -0.5667 0.2184 -0.7945
vn -0.0987 0.7636 -0.6381
vn 0.0987 0.7636 -0.6381
vn 0.1761 0.3590 -0.9166
vn -0.2686 0.8089 -0.5231
vn -0.4008 0.5552 -0.7288
vn -0.1273 0.5228 -0.8429
vn -0.7504 0.3299 0.5728
vn -0.2798 0.9518 0.1255
vn -0.3044 0.8995 -0.3134
vn -0.9974 0.0714 -0.0007
vn -0.2071 0.7732 0.5993
vn -0.2599 0.5345 0.8042
vn -0.5455 0.5847 0.6004
vn -0.3188 0.8263 0.4644
vn 0.2026 0.1616 0.9658
vn 0.1961 0.7787 0.5959
vn -0.0000 0.7583 0.6520
vn -0.3377 -0.1265 0.9327
vn -0.6745 0.6185 -0.4032
vn 0.2599 0.5345 0.8042
vn -0.0000 0.5190 0.8548
vn 0.7465 0.4796 -0.4612
vn 0.7042 0.2810 -0.6520
vn -0.5436 -0.0800 0.8355
vn -0.6086 -0.0726 0.7901
vn -0.9506 -0.1074 -0.2912
vn -0.4491 -0.7760 0.4428
vn -0.2076 -0.9561 0.2068
vn -0.1380 -0.9657 -0.2199
vn -0.4094 -0.6743 -0.6146
vn -0.0280 -0.9662 0.2564
vn 0.0291 -0.8071 0.5897
vn 0.1273 0.5228 -0.8429
vn -0.5152 -0.6205 -0.5912
vn -0.6566 -0.4785 0.5830
vn 0.7382 0.6340 0.2304
vn 0.7604 0.6475 0.0502
vn 0.7523 0.6432 0.1428
vn 0.5455 0.5847 0.6004
vn 0.1030 -0.7238 -0.6823
vn 0.6107 -0.6088 -0.5064
vn -0.7523 0.6432 0.1428
vn 0.7594 0.2984 0.5781
vn 0.7349 0.5812 0.3495
vn -0.8443 -0.2339 -0.4821
vn -0.4912 -0.2251 -0.8415
vn 0.6500 -0.6207 0.4384
vn 0.4370 -0.5123 -0.7393
vn 0.8444 -0.3816 -0.3759
vn 0.8407 -0.4909 -0.2285
vn 0.7547 -0.4675 -0.4604
vn 0.4388 -0.3666 -0.8204
vn 0.6040 -0.4164 0.6795
vn 0.2793 -0.3243 0.9038
vn -0.9548 -0.2414 0.1733
vn 0.8486 -0.5029 0.1643
vn -0.6728 -0.2265 0.7043
vn -0.3215 -0.2310 0.9183
vn -0.0177 -0.2636 0.9645
vn 0.1286 -0.2901 -0.9483
vn -0.1655 -0.2440 -0.9556
vn -0.7847 -0.4185 -0.4573
vn -0.7732 0.4783 -0.4165
vn -0.4384 0.5300 -0.7259
vn -0.4514 -0.3774 -0.8086
vn 0.0138 -0.4013 0.9158
vn -0.2853 -0.3731 0.8828
vn 0.1545 -0.4310 -0.8890
vn -0.1312 -0.3815 -0.9150
vn 0.2950 -0.4690 0.8325
vn 0.8164 -0.4563 0.3540
vn 0.8066 -0.3437 0.4810
vn -0.8843 -0.4373 0.1634
vn 0.8545 -0.5134 0.0796
vn -0.6254 -0.3943 0.6734
vn 0.2792 0.5483 0.7883
vn 0.6904 0.5222 0.5006
vn 0.6479 0.5150 -0.5613
vn 0.1353 0.5590 -0.8180
vn -0.1353 0.5590 -0.8180
vn -0.8751 0.4605 0.1489
vn -0.6111 0.5049 0.6097
vn -0.2792 0.5483 0.7883
vn -0.0000 0.5625 0.8268
vn 0.8047 -0.1944 -0.5610
vn 0.9415 0.3303 -0.0669
vn 0.9415 0.3011 -0.1513
vn 0.9451 0.2737 0.1783
vn 0.9046 0.3558 0.2346
vn 0.9060 0.4024 0.1315
vn 0.9422 0.3182 0.1051
vn 0.9128 -0.3550 0.2021
vn 0.9545 0.1237 0.2715
vn 0.9432 0.3314 0.0232
vn 0.9386 0.2624 -0.2240
vn 0.9454 0.1234 -0.3015
vn 0.9070 -0.3618 -0.2155
vn 0.8833 0.1668 0.4382
vn 0.6259 0.2882 0.7247
vn 0.6091 0.6428 0.4645
vn 0.9035 0.4275 0.0292
vn 0.7007 -0.6047 -0.3785
vn 0.7132 -0.6053 0.3534
vn 0.8680 0.1555 -0.4717
vn 0.9023 0.4223 -0.0869
vn 0.9012 0.3871 -0.1948
vn 0.8993 0.3302 -0.2867
vn 0.1442 -0.6034 0.7843
vn -0.5940 -0.6034 0.5320
vn -0.9393 -0.2073 0.2733
vn -0.3927 0.5242 0.7557
vn 0.6154 0.7347 0.2854
vn 0.6377 0.7649 0.0908
vn 0.3651 -0.4823 -0.7963
vn 0.7355 0.2429 -0.6325
vn 0.6488 0.7525 -0.1131
vn 0.6659 0.6831 -0.2999
vn 0.6734 0.5856 -0.4512
vn 0.7058 0.6239 0.3356
vn 0.6716 0.5258 0.5219
vn 0.5640 0.1618 0.8098
vn -0.1942 0.7399 -0.6441
vn 0.7210 0.3047 -0.6224
vn 0.7603 0.5132 -0.3981
vn 0.7468 0.6184 -0.2445
vn 0.7362 0.6746 -0.0541
vn 0.7179 0.6786 0.1555
vn -0.5648 -0.5470 -0.6179
vn -0.8881 -0.1640 -0.4294
vn -0.6700 0.6341 -0.3860
vn -0.7034 0.4576 0.5440
vn 0.8192 0.4410 -0.3667
vn 0.6894 0.4405 -0.5750
vn -0.5398 0.6018 -0.5886
vn -0.5110 0.5287 0.6777
vn -0.4698 0.7467 -0.4708
vn 0.6246 0.3795 0.6825
vn 0.7859 0.2654 0.5585
vn 0.6653 0.5947 -0.4512
vn -0.1886 -0.7049 0.6838
vn -0.4052 -0.8657 0.2940
vn -0.2307 -0.8913 0.3904
vn -0.1450 -0.6937 0.7055
vn -0.6383 -0.5980 0.4847
vn -0.4089 -0.5542 0.7250
vn 0.9688 -0.1336 -0.2085
vn 0.6421 0.1904 0.7426
vn 0.4795 -0.7449 0.4638
vn 0.5202 -0.5297 -0.6699
vn -0.5871 0.3517 0.7291
vn -0.6246 -0.3795 -0.6825
vn -0.6653 -0.5947 0.4512
vt 0.307692 0.500000
vt 0.371560 0.500000
vt 0.384615 0.500000
vt 0.538462 0.500000
vt 0.461538 0.500000
vt 0.615385 0.500000
vt 0.769231 0.500000
vt 0.692308 0.500000
vt 0.923077 0.500000
vt 0.846154 0.500000
vt 0.076923 0.500000
vt 0.000000 0.500000
vt 0.405833 0.500000
vt 0.301070 0.081403
vt 0.388663 0.127376
vt 0.437669 0.198373
vt 0.445969 0.266726
vt 0.418879 0.338156
vt 0.348446 0.400555
vt 0.250000 0.424819
vt 0.151554 0.400555
vt 0.076923 1.000000
vt 1.000000 0.500000
vt 0.307436 0.016974
vt 0.153846 0.500000
vt 0.230769 0.500000
vt 0.461538 1.000000
vt 0.538462 1.000000
vt 0.405833 1.000000
vt 0.094422 0.500000
vt 0.129430 0.500000
vt 0.094422 1.000000
vt 0.366401 0.500000
vt 0.133345 0.500000
vt 0.638466 0.462509
vt 0.597371 0.426103
vt 0.597372 0.066935
vt 0.692564 0.016974
vt 0.807436 0.016974
vt 0.909149 0.070357
vt 0.974404 0.164895
vt 0.988250 0.278929
vt 0.947516 0.386336
vt 0.861534 0.462509
vt 0.750000 0.490000
vt 0.113688 0.500000
vt 0.389547 0.500000
vt 0.410820 0.577989
vt 0.434897 0.588447
vt 0.441150 0.595526
vt 0.450257 0.619470
vt 0.447407 0.641936
vt 0.434897 0.661698
vt 0.418659 0.670991
vt 0.410820 0.673870
vt 0.118907 0.055632
vt 0.118907 0.445181
vt 0.479610 0.592298
vt 0.484455 0.580326
vt 0.505446 0.554463
vt 0.569736 0.554463
vt 0.569736 0.695243
vt 0.505446 0.695243
vt 0.489349 0.678477
vt 0.484455 0.670532
vt 0.475989 0.642967
vt 0.474443 0.619247
vt 0.192564 0.016974
vt 0.198930 0.081403
vt 0.158949 0.102387
vt 0.158949 0.407106
vt 0.138466 0.462509
s 1
f 28/1/1 70/1/2 69/2/3 22/3/4 29/3/5
f 10/4/6 20/4/7 21/5/8 12/5/9
f 19/6/10 32/6/11 31/4/12 20/4/7
f 7/7/13 17/7/14 18/8/15 8/8/16
f 1/9/17 36/9/18 35/10/19 16/10/20
f 14/11/21 23/11/22 2/12/23 3/12/24
f 18/8/15 33/8/25 32/6/11 19/6/10
f 23/11/22 24/11/26 25/12/27 2/12/23
f 22/3/4 72/3/28 71/13/29 12/5/9 21/5/8
f 3/12/24 5/9/30 6/10/31 7/7/13 8/8/16 9/6/32 10/4/6 150/14/33 149/15/34 148/16/34 147/17/34 146/18/34 145/19/34 144/20/35 4/20/36 15/21/37 141/22/38 14/11/21
f 21/5/8 30/5/39 29/3/5 22/3/4
f 3/23/24 2/23/23 1/9/17 5/9/30
f 10/4/6 139/24/40 11/14/41 150/14/33
f 73/25/42 74/26/43 27/26/44 26/25/45
f 8/8/16 18/8/15 19/6/10 9/6/32
f 10/4/6 12/5/9 140/27/46 139/28/40
f 2/23/23 25/23/27 36/9/18 1/9/17
f 5/9/30 1/9/17 16/10/20 6/10/31
f 71/13/29 142/29/47 140/27/46 12/5/9
f 17/7/14 34/7/48 33/8/25 18/8/15
f 14/11/21 76/30/49 77/31/50 23/11/22
f 20/4/7 31/4/12 30/5/39 21/5/8
f 69/2/3 72/3/28 22/3/4
f 33/8/25 46/8/51 45/6/52 32/6/11
f 9/6/32 19/6/10 20/4/7 10/4/6
f 74/26/43 70/1/2 28/1/1 27/26/44
f 143/32/53 76/30/49 14/11/21 141/22/38
f 23/11/22 77/31/50 73/25/42 26/25/45 24/11/26
f 6/10/31 16/10/20 17/7/14 7/7/13
f 16/10/20 35/10/19 34/7/48 17/7/14
f 52/3/54 80/33/55 79/1/56 41/1/57 42/3/58
f 26/25/45 39/25/59 37/11/60 24/11/26
f 34/7/48 47/7/61 46/8/51 33/8/25
f 27/26/44 40/26/62 39/25/59 26/25/45
f 35/10/19 48/10/63 47/7/61 34/7/48
f 28/1/1 41/1/57 40/26/62 27/26/44
f 36/9/18 49/9/64 48/10/63 35/10/19
f 29/3/5 42/3/58 41/1/57 28/1/1
f 25/23/27 38/23/65 49/9/64 36/9/18
f 30/5/39 43/5/66 42/3/58 29/3/5
f 31/4/12 44/4/67 43/5/66 30/5/39
f 32/6/11 45/6/52 44/4/67 31/4/12
f 24/11/26 37/11/60 38/12/65 25/12/27
f 56/8/68 65/8/69 64/6/70 55/6/71
f 38/23/65 51/23/72 59/9/73 49/9/64
f 43/5/66 53/5/74 52/3/54 42/3/58
f 44/4/67 54/4/75 53/5/74 43/5/66
f 45/6/52 55/6/71 54/4/75 44/4/67
f 37/11/60 50/11/76 51/12/72 38/12/65
f 46/8/51 56/8/68 55/6/71 45/6/52
f 39/25/59 82/25/77 81/34/78 50/11/76 37/11/60
f 47/7/61 57/7/79 56/8/68 46/8/51
f 83/26/80 82/25/77 39/25/59 40/26/62
f 48/10/63 58/10/81 57/7/79 47/7/61
f 79/1/56 83/26/80 40/26/62 41/1/57
f 49/9/64 59/9/73 58/10/81 48/10/63
f 60/35/82 85/36/83 84/37/84 62/38/85 63/39/86 64/40/70 65/41/69 66/42/87 67/43/88 68/44/89 61/45/90
f 50/11/76 81/34/78 85/46/83 60/11/82
f 57/7/79 66/7/87 65/8/69 56/8/68
f 58/10/81 67/10/88 66/7/87 57/7/79
f 59/9/73 68/9/89 67/10/88 58/10/81
f 86/3/91 80/33/55 52/3/54
f 51/23/72 61/23/90 68/9/89 59/9/73
f 62/5/85 84/47/84 86/3/91 52/3/54 53/5/74
f 54/4/75 63/4/86 62/5/85 53/5/74
f 55/6/71 64/6/70 63/4/86 54/4/75
f 50/11/76 60/11/82 61/12/90 51/12/72
f 70/1/2 87/1/92 92/2/93 69/2/3
f 85/48/83 81/49/78 82/50/77 83/51/80 79/52/56 80/53/55 86/54/91 84/55/84
f 90/31/94 100/31/95 104/25/96 94/25/97
f 143/32/53 91/32/98 89/30/99 76/30/49
f 74/26/43 88/26/100 87/1/92 70/1/2
f 72/3/28 93/3/101 96/13/102 71/13/29
f 77/31/50 90/31/94 94/25/97 73/25/42
f 73/25/42 94/25/97 88/26/100 74/26/43
f 142/56/47 95/56/103 91/57/98 143/57/53
f 76/30/49 89/30/99 90/31/94 77/31/50
f 71/13/29 96/13/102 95/29/103 142/29/47
f 69/2/3 92/2/93 93/3/101 72/3/28
f 99/30/104 109/30/105 110/31/106 100/31/95
f 89/30/99 99/30/104 100/31/95 90/31/94
f 94/25/97 104/25/96 98/26/107 88/26/100
f 95/56/103 105/56/108 101/57/109 91/57/98
f 91/32/98 101/32/109 99/30/104 89/30/99
f 96/13/102 106/13/110 105/29/108 95/29/103
f 87/1/92 97/1/111 102/2/112 92/2/93
f 92/2/93 102/2/112 103/3/113 93/3/101
f 88/26/100 98/26/107 97/1/111 87/1/92
f 93/3/101 103/3/113 106/13/110 96/13/102
f 111/32/114 128/32/115 130/32/116 121/32/117
f 104/25/96 114/25/118 108/26/119 98/26/107
f 105/56/108 115/56/120 111/57/114 101/57/109
f 101/32/109 111/32/114 109/30/105 99/30/104
f 106/13/110 116/13/121 115/29/120 105/29/108
f 97/1/111 107/1/122 112/2/123 102/2/112
f 102/2/112 112/2/123 113/3/124 103/3/113
f 98/26/107 108/26/119 107/1/122 97/1/111
f 103/3/113 113/3/124 116/13/121 106/13/110
f 100/31/95 110/31/106 114/25/118 104/25/96
f 124/58/125 120/59/126 119/60/127 121/61/117 125/62/128 126/63/129 123/64/130 122/65/131 117/66/132 118/67/133
f 111/32/114 121/32/117 119/30/127 109/30/105
f 116/13/121 126/13/129 125/29/128 115/29/120
f 107/1/122 117/1/132 122/2/131 112/2/123
f 112/2/123 122/2/131 123/3/130 113/3/124
f 108/26/119 118/26/133 117/1/132 107/1/122
f 113/3/124 123/3/130 126/13/129 116/13/121
f 110/31/106 120/31/126 124/25/125 114/25/118
f 109/30/105 119/30/127 120/31/126 110/31/106
f 114/25/118 124/25/125 118/26/133 108/26/119
f 127/56/134 129/56/135 130/57/116 128/57/115
f 125/29/128 129/29/135 127/29/134 115/29/120
f 115/56/120 127/56/134 128/57/115 111/57/114
f 129/56/135 133/56/136 134/57/137 130/57/116
f 137/29/138 157/29/139 155/29/140 133/29/136
f 130/32/116 134/32/137 132/32/141 121/32/117
f 121/61/117 132/61/141 131/62/142 125/62/128
f 125/29/128 131/29/142 133/29/136 129/29/135
f 136/61/143 138/61/144 137/62/138 135/62/145
f 134/32/137 138/32/144 136/32/143 132/32/141
f 132/61/141 136/61/143 135/62/145 131/62/142
f 131/29/142 135/29/145 137/29/138 133/29/136
f 11/14/41 139/24/40 140/68/46 13/69/146
f 75/70/147 142/56/47 143/57/53 78/71/148
f 78/71/148 143/57/53 141/72/38 15/21/37
f 13/69/146 140/68/46 142/56/47 75/70/147
f 151/69/149 153/70/150 154/71/151 152/21/152 144/20/35 145/19/34 146/18/34 147/17/34 148/16/34 149/15/34 150/14/33
f 15/21/37 152/21/152 154/71/151 78/71/148
f 13/69/146 151/69/149 150/14/33 11/14/41
f 75/70/147 153/70/150 151/69/149 13/69/146
f 4/20/36 144/20/35 152/21/152 15/21/37
f 78/71/148 154/71/151 153/70/150 75/70/147
f 158/61/153 162/61/154 161/62/155 157/62/139
f 138/61/144 158/61/153 157/62/139 137/62/138
f 133/56/136 155/56/140 156/57/156 134/57/137
f 134/32/137 156/32/156 158/32/153 138/32/144
f 159/56/157 161/56/155 162/57/154 160/57/158
f 156/32/156 160/32/158 162/32/154 158/32/153
f 155/56/140 159/56/157 160/57/158 156/57/156
f 157/29/139 161/29/155 159/29/157 155/29/140
